<svg id="visual" viewBox="0 0 960 540" width="960" height="540" xmlns="http://www.w3.org/2000/svg" xmlns:xlink="http://www.w3.org/1999/xlink" version="1.1"><path d="M0 39L14.5 34.5C29 30 58 21 87.2 18.3C116.3 15.7 145.7 19.3 174.8 23.8C204 28.3 233 33.7 262 32.7C291 31.7 320 24.3 349 24.3C378 24.3 407 31.7 436.2 31.7C465.3 31.7 494.7 24.3 523.8 24.3C553 24.3 582 31.7 611 35.3C640 39 669 39 698 39.8C727 40.7 756 42.3 785.2 41.3C814.3 40.3 843.7 36.7 872.8 34.8C902 33 931 33 945.5 33L960 33L960 0L945.5 0C931 0 902 0 872.8 0C843.7 0 814.3 0 785.2 0C756 0 727 0 698 0C669 0 640 0 611 0C582 0 553 0 523.8 0C494.7 0 465.3 0 436.2 0C407 0 378 0 349 0C320 0 291 0 262 0C233 0 204 0 174.8 0C145.7 0 116.3 0 87.2 0C58 0 29 0 14.5 0L0 0Z" fill="#ffffff"></path><path d="M0 77L14.5 69.7C29 62.3 58 47.7 87.2 44C116.3 40.3 145.7 47.7 174.8 52.2C204 56.7 233 58.3 262 60.2C291 62 320 64 349 65C378 66 407 66 436.2 61.5C465.3 57 494.7 48 523.8 50.7C553 53.3 582 67.7 611 73C640 78.3 669 74.7 698 72.8C727 71 756 71 785.2 68.3C814.3 65.7 843.7 60.3 872.8 61.3C902 62.3 931 69.7 945.5 73.3L960 77L960 31L945.5 31C931 31 902 31 872.8 32.8C843.7 34.7 814.3 38.3 785.2 39.3C756 40.3 727 38.7 698 37.8C669 37 640 37 611 33.3C582 29.7 553 22.3 523.8 22.3C494.7 22.3 465.3 29.7 436.2 29.7C407 29.7 378 22.3 349 22.3C320 22.3 291 29.7 262 30.7C233 31.7 204 26.3 174.8 21.8C145.7 17.3 116.3 13.7 87.2 16.3C58 19 29 28 14.5 32.5L0 37Z" fill="#f3f8fa"></path><path d="M0 114L14.5 105C29 96 58 78 87.2 74.5C116.3 71 145.7 82 174.8 91C204 100 233 107 262 110.5C291 114 320 114 349 111.3C378 108.7 407 103.3 436.2 98C465.3 92.7 494.7 87.3 523.8 92.8C553 98.3 582 114.7 611 121C640 127.3 669 123.7 698 117.3C727 111 756 102 785.2 95.7C814.3 89.3 843.7 85.7 872.8 86.5C902 87.3 931 92.7 945.5 95.3L960 98L960 75L945.5 71.3C931 67.7 902 60.3 872.8 59.3C843.7 58.3 814.3 63.7 785.2 66.3C756 69 727 69 698 70.8C669 72.7 640 76.3 611 71C582 65.7 553 51.3 523.8 48.7C494.7 46 465.3 55 436.2 59.5C407 64 378 64 349 63C320 62 291 60 262 58.2C233 56.3 204 54.7 174.8 50.2C145.7 45.7 116.3 38.3 87.2 42C58 45.7 29 60.3 14.5 67.7L0 75Z" fill="#e7f0f5"></path><path d="M0 179L14.5 180.8C29 182.7 58 186.3 87.2 192.7C116.3 199 145.7 208 174.8 216.2C204 224.3 233 231.7 262 228C291 224.3 320 209.7 349 204.2C378 198.7 407 202.3 436.2 200.7C465.3 199 494.7 192 523.8 198.3C553 204.7 582 224.3 611 224.3C640 224.3 669 204.7 698 197.5C727 190.3 756 195.7 785.2 203.7C814.3 211.7 843.7 222.3 872.8 232.2C902 242 931 251 945.5 255.5L960 260L960 96L945.5 93.3C931 90.7 902 85.3 872.8 84.5C843.7 83.7 814.3 87.3 785.2 93.7C756 100 727 109 698 115.3C669 121.7 640 125.3 611 119C582 112.7 553 96.3 523.8 90.8C494.7 85.3 465.3 90.7 436.2 96C407 101.3 378 106.7 349 109.3C320 112 291 112 262 108.5C233 105 204 98 174.8 89C145.7 80 116.3 69 87.2 72.5C58 76 29 94 14.5 103L0 112Z" fill="#dae9f0"></path><path d="M0 266L14.5 266C29 266 58 266 87.2 272.2C116.3 278.3 145.7 290.7 174.8 298.7C204 306.7 233 310.3 262 302.3C291 294.3 320 274.7 349 267.5C378 260.3 407 265.7 436.2 273.7C465.3 281.7 494.7 292.3 523.8 296C553 299.7 582 296.3 611 287.3C640 278.3 669 263.7 698 265.3C727 267 756 285 785.2 301.3C814.3 317.7 843.7 332.3 872.8 337.8C902 343.3 931 339.7 945.5 337.8L960 336L960 258L945.5 253.5C931 249 902 240 872.8 230.2C843.7 220.3 814.3 209.7 785.2 201.7C756 193.7 727 188.3 698 195.5C669 202.7 640 222.3 611 222.3C582 222.3 553 202.7 523.8 196.3C494.7 190 465.3 197 436.2 198.7C407 200.3 378 196.7 349 202.2C320 207.7 291 222.3 262 226C233 229.7 204 222.3 174.8 214.2C145.7 206 116.3 197 87.2 190.7C58 184.3 29 180.7 14.5 178.8L0 177Z" fill="#cee2eb"></path><path d="M0 320L14.5 320.8C29 321.7 58 323.3 87.2 327.8C116.3 332.3 145.7 339.7 174.8 341.5C204 343.3 233 339.7 262 327.8C291 316 320 296 349 288.8C378 281.7 407 287.3 436.2 300.8C465.3 314.3 494.7 335.7 523.8 342.8C553 350 582 343 611 327.8C640 312.7 669 289.3 698 290.2C727 291 756 316 785.2 337.5C814.3 359 843.7 377 872.8 381.5C902 386 931 377 945.5 372.5L960 368L960 334L945.5 335.8C931 337.7 902 341.3 872.8 335.8C843.7 330.3 814.3 315.7 785.2 299.3C756 283 727 265 698 263.3C669 261.7 640 276.3 611 285.3C582 294.3 553 297.7 523.8 294C494.7 290.3 465.3 279.7 436.2 271.7C407 263.7 378 258.3 349 265.5C320 272.7 291 292.3 262 300.3C233 308.3 204 304.7 174.8 296.7C145.7 288.7 116.3 276.3 87.2 270.2C58 264 29 264 14.5 264L0 264Z" fill="#c2dae7"></path><path d="M0 336L14.5 341.3C29 346.7 58 357.3 87.2 361.8C116.3 366.3 145.7 364.7 174.8 365.7C204 366.7 233 370.3 262 361.3C291 352.3 320 330.7 349 325.2C378 319.7 407 330.3 436.2 342C465.3 353.7 494.7 366.3 523.8 368.2C553 370 582 361 611 344.8C640 328.7 669 305.3 698 309.8C727 314.3 756 346.7 785.2 369.2C814.3 391.7 843.7 404.3 872.8 408C902 411.7 931 406.3 945.5 403.7L960 401L960 366L945.5 370.5C931 375 902 384 872.8 379.5C843.7 375 814.3 357 785.2 335.5C756 314 727 289 698 288.2C669 287.3 640 310.7 611 325.8C582 341 553 348 523.8 340.8C494.7 333.7 465.3 312.3 436.2 298.8C407 285.3 378 279.7 349 286.8C320 294 291 314 262 325.8C233 337.7 204 341.3 174.8 339.5C145.7 337.7 116.3 330.3 87.2 325.8C58 321.3 29 319.7 14.5 318.8L0 318Z" fill="#b5d3e2"></path><path d="M0 374L14.5 378.5C29 383 58 392 87.2 392.8C116.3 393.7 145.7 386.3 174.8 386.3C204 386.3 233 393.7 262 383.8C291 374 320 347 349 343.3C378 339.7 407 359.3 436.2 371C465.3 382.7 494.7 386.3 523.8 384.5C553 382.7 582 375.3 611 361.8C640 348.3 669 328.7 698 332.3C727 336 756 363 785.2 383.7C814.3 404.3 843.7 418.7 872.8 426.7C902 434.7 931 436.3 945.5 437.2L960 438L960 399L945.5 401.7C931 404.3 902 409.7 872.8 406C843.7 402.3 814.3 389.7 785.2 367.2C756 344.7 727 312.3 698 307.8C669 303.3 640 326.7 611 342.8C582 359 553 368 523.8 366.2C494.7 364.3 465.3 351.7 436.2 340C407 328.3 378 317.7 349 323.2C320 328.7 291 350.3 262 359.3C233 368.3 204 364.7 174.8 363.7C145.7 362.7 116.3 364.3 87.2 359.8C58 355.3 29 344.7 14.5 339.3L0 334Z" fill="#a9ccdd"></path><path d="M0 519L14.5 514.5C29 510 58 501 87.2 493C116.3 485 145.7 478 174.8 479C204 480 233 489 262 489C291 489 320 480 349 478.2C378 476.3 407 481.7 436.2 488C465.3 494.3 494.7 501.7 523.8 498C553 494.3 582 479.7 611 473.3C640 467 669 469 698 476.3C727 483.7 756 496.3 785.2 499.8C814.3 503.3 843.7 497.7 872.8 495.8C902 494 931 496 945.5 497L960 498L960 436L945.5 435.2C931 434.3 902 432.7 872.8 424.7C843.7 416.7 814.3 402.3 785.2 381.7C756 361 727 334 698 330.3C669 326.7 640 346.3 611 359.8C582 373.3 553 380.7 523.8 382.5C494.7 384.3 465.3 380.7 436.2 369C407 357.3 378 337.7 349 341.3C320 345 291 372 262 381.8C233 391.7 204 384.3 174.8 384.3C145.7 384.3 116.3 391.7 87.2 390.8C58 390 29 381 14.5 376.5L0 372Z" fill="#9cc4d8"></path><path d="M0 541L14.5 541C29 541 58 541 87.2 541C116.3 541 145.7 541 174.8 541C204 541 233 541 262 541C291 541 320 541 349 541C378 541 407 541 436.2 541C465.3 541 494.7 541 523.8 541C553 541 582 541 611 541C640 541 669 541 698 541C727 541 756 541 785.2 541C814.3 541 843.7 541 872.8 541C902 541 931 541 945.5 541L960 541L960 496L945.5 495C931 494 902 492 872.8 493.8C843.7 495.7 814.3 501.3 785.2 497.8C756 494.3 727 481.7 698 474.3C669 467 640 465 611 471.3C582 477.7 553 492.3 523.8 496C494.7 499.7 465.3 492.3 436.2 486C407 479.7 378 474.3 349 476.2C320 478 291 487 262 487C233 487 204 478 174.8 477C145.7 476 116.3 483 87.2 491C58 499 29 508 14.5 512.5L0 517Z" fill="#8fbdd3"></path></svg>