<svg id="visual" viewBox="0 0 960 540" width="960" height="540" xmlns="http://www.w3.org/2000/svg" xmlns:xlink="http://www.w3.org/1999/xlink" version="1.1"><path d="M0 351L22.8 343C45.7 335 91.3 319 137 318.8C182.7 318.7 228.3 334.3 274 336.3C319.7 338.3 365.3 326.7 411.2 326.5C457 326.3 503 337.7 548.8 334.7C594.7 331.7 640.3 314.3 686 311.2C731.7 308 777.3 319 823 324C868.7 329 914.3 328 937.2 327.5L960 327L960 541L937.2 541C914.3 541 868.7 541 823 541C777.3 541 731.7 541 686 541C640.3 541 594.7 541 548.8 541C503 541 457 541 411.2 541C365.3 541 319.7 541 274 541C228.3 541 182.7 541 137 541C91.3 541 45.7 541 22.8 541L0 541Z" fill="#ffffff"></path><path d="M0 354L22.8 358.8C45.7 363.7 91.3 373.3 137 374.5C182.7 375.7 228.3 368.3 274 367C319.7 365.7 365.3 370.3 411.2 366.5C457 362.7 503 350.3 548.8 348.3C594.7 346.3 640.3 354.7 686 356.8C731.7 359 777.3 355 823 352.8C868.7 350.7 914.3 350.3 937.2 350.2L960 350L960 541L937.2 541C914.3 541 868.7 541 823 541C777.3 541 731.7 541 686 541C640.3 541 594.7 541 548.8 541C503 541 457 541 411.2 541C365.3 541 319.7 541 274 541C228.3 541 182.7 541 137 541C91.3 541 45.7 541 22.8 541L0 541Z" fill="#e4eef4"></path><path d="M0 396L22.8 397.8C45.7 399.7 91.3 403.3 137 405.8C182.7 408.3 228.3 409.7 274 406.2C319.7 402.7 365.3 394.3 411.2 391C457 387.7 503 389.3 548.8 388.7C594.7 388 640.3 385 686 386.5C731.7 388 777.3 394 823 401C868.7 408 914.3 416 937.2 420L960 424L960 541L937.2 541C914.3 541 868.7 541 823 541C777.3 541 731.7 541 686 541C640.3 541 594.7 541 548.8 541C503 541 457 541 411.2 541C365.3 541 319.7 541 274 541C228.3 541 182.7 541 137 541C91.3 541 45.7 541 22.8 541L0 541Z" fill="#c8dee9"></path><path d="M0 427L22.8 427.5C45.7 428 91.3 429 137 432.5C182.7 436 228.3 442 274 447.5C319.7 453 365.3 458 411.2 458.8C457 459.7 503 456.3 548.8 454.8C594.7 453.3 640.3 453.7 686 450.5C731.7 447.3 777.3 440.7 823 438.8C868.7 437 914.3 440 937.2 441.5L960 443L960 541L937.2 541C914.3 541 868.7 541 823 541C777.3 541 731.7 541 686 541C640.3 541 594.7 541 548.8 541C503 541 457 541 411.2 541C365.3 541 319.7 541 274 541C228.3 541 182.7 541 137 541C91.3 541 45.7 541 22.8 541L0 541Z" fill="#accdde"></path><path d="M0 471L22.8 474C45.7 477 91.3 483 137 483.2C182.7 483.3 228.3 477.7 274 476.5C319.7 475.3 365.3 478.7 411.2 478.8C457 479 503 476 548.8 477.3C594.7 478.7 640.3 484.3 686 485.3C731.7 486.3 777.3 482.7 823 483.8C868.7 485 914.3 491 937.2 494L960 497L960 541L937.2 541C914.3 541 868.7 541 823 541C777.3 541 731.7 541 686 541C640.3 541 594.7 541 548.8 541C503 541 457 541 411.2 541C365.3 541 319.7 541 274 541C228.3 541 182.7 541 137 541C91.3 541 45.7 541 22.8 541L0 541Z" fill="#8fbdd3"></path></svg>