<?xml version="1.0" standalone="no"?>
<!DOCTYPE svg PUBLIC "-//W3C//DTD SVG 20010904//EN"
 "http://www.w3.org/TR/2001/REC-SVG-20010904/DTD/svg10.dtd">
<svg version="1.0" xmlns="http://www.w3.org/2000/svg"
 width="750.000000pt" height="750.000000pt" viewBox="0 0 750.000000 750.000000"
 preserveAspectRatio="xMidYMid meet">
<metadata>
Created by potrace 1.14, written by Peter Selinger 2001-2017
</metadata>
<g transform="translate(0.000000,750.000000) scale(0.100000,-0.100000)"
fill="#000000" stroke="none">
<path d="M3937 7014 c-1 -1 -76 -5 -167 -8 -91 -4 -181 -8 -200 -11 -19 -2
-71 -6 -115 -10 -44 -3 -105 -10 -135 -15 -30 -5 -82 -11 -115 -15 -33 -3 -67
-8 -75 -10 -8 -2 -33 -6 -55 -10 -319 -46 -705 -153 -950 -263 -110 -50 -267
-131 -286 -148 -8 -8 -19 -14 -22 -14 -7 0 -117 -70 -127 -80 -3 -3 -25 -21
-50 -40 -109 -85 -267 -235 -333 -320 -28 -36 -54 -67 -57 -70 -15 -13 -122
-163 -162 -225 -259 -407 -500 -1003 -642 -1585 -19 -80 -37 -157 -40 -173 -3
-15 -7 -35 -10 -45 -3 -9 -7 -33 -10 -52 -3 -19 -10 -57 -15 -85 -5 -27 -13
-77 -16 -110 -4 -33 -9 -63 -11 -66 -2 -4 -6 -42 -10 -85 -3 -44 -8 -90 -10
-104 -23 -132 -22 -686 1 -855 2 -16 6 -54 10 -84 3 -29 10 -85 16 -125 6 -39
13 -84 15 -101 27 -192 141 -581 223 -759 20 -45 44 -96 52 -113 7 -18 17 -33
21 -33 5 0 8 -5 8 -12 0 -13 76 -142 126 -213 84 -119 172 -215 268 -292 39
-32 73 -61 74 -65 2 -5 9 -8 15 -8 6 0 18 -7 28 -16 85 -77 424 -217 602 -248
15 -3 35 -7 45 -10 19 -5 68 -13 140 -22 165 -20 285 -27 448 -27 129 0 191 4
349 18 89 8 167 18 207 25 26 5 69 12 95 15 26 4 93 16 148 27 115 23 108 21
200 43 39 10 75 18 80 19 6 1 37 10 70 19 33 10 87 25 120 34 99 27 419 135
429 144 6 5 16 9 24 9 17 0 403 155 510 205 28 14 80 37 115 51 34 15 113 51
176 80 62 30 115 54 117 54 1 0 64 29 139 65 74 36 137 65 139 65 8 0 208 96
471 225 292 144 462 236 595 324 47 31 93 60 102 66 75 45 239 177 323 260
136 134 150 152 243 300 11 18 31 60 67 140 60 136 77 380 40 600 -24 140 -89
377 -137 492 -6 16 -12 33 -14 38 -5 20 -102 252 -133 320 -66 142 -349 725
-362 745 -5 8 -17 31 -25 50 -28 61 -383 774 -399 800 -8 14 -47 81 -86 150
-39 69 -80 140 -91 159 -17 30 -120 181 -140 206 -5 6 -27 35 -50 65 -99 128
-324 350 -356 350 -6 0 -12 4 -14 9 -4 12 -152 102 -218 133 -104 49 -235 100
-290 113 -3 1 -25 7 -50 14 -25 7 -76 20 -115 28 -95 20 -104 22 -150 28 -22
2 -58 7 -80 10 -82 11 -123 15 -220 21 -103 6 -304 11 -308 8z"/>
</g>
</svg>
